<?xml version="1.0" encoding="iso-8859-1"?>
<!-- Uploaded to: SVG Repo, www.svgrepo.com, Generator: SVG Repo Mixer Tools -->
<svg fill="#000000" height="32px" width="32px" version="1.1" id="Capa_1" xmlns="http://www.w3.org/2000/svg" xmlns:xlink="http://www.w3.org/1999/xlink" 
	 viewBox="0 0 285.001 285.001" xml:space="preserve">
<g>
	<g>
		<path d="M280.491,124.252L150.949,12.847c-4.861-4.175-12.036-4.175-16.897,0L4.509,124.252
			c-5.424,4.667-6.042,12.846-1.379,18.271c4.676,5.421,12.852,6.036,18.27,1.376L142.5,39.757l121.1,104.141
			c2.449,2.103,5.449,3.129,8.436,3.129c3.649,0,7.273-1.527,9.834-4.505C286.534,137.098,285.915,128.918,280.491,124.252z"/>
		<path d="M142.5,129.543c-16.075,0-29.149,13.075-29.149,29.149s13.075,29.152,29.149,29.152s29.149-13.078,29.149-29.152
			S158.575,129.543,142.5,129.543z"/>
		<path d="M146.73,57.919c-2.437-2.093-6.024-2.093-8.461,0l-97.622,84.208c-1.423,1.228-2.245,3.018-2.245,4.901v121.781
			c0,3.575,2.9,6.476,6.476,6.476h195.244c3.575,0,6.476-2.901,6.476-6.476V147.028c0-1.883-0.822-3.674-2.245-4.901L146.73,57.919z
			 M147.603,251.741c-1.225,1.574-3.105,2.496-5.103,2.496s-3.878-0.921-5.103-2.496c-5.115-6.547-49.955-64.799-49.955-93.048
			c0-30.362,24.702-55.058,55.058-55.058s55.058,24.696,55.058,55.058C197.558,186.942,152.717,245.194,147.603,251.741z"/>
	</g>
</g>
</svg>